<svg width="256" height="256" viewBox="0 0 256 256" fill="none" xmlns="http://www.w3.org/2000/svg">
<path d="M110.605 31.0639C100.371 20.8691 83.7516 20.9782 73.5543 31.2091L7.5804 97.4141C-2.61818 107.646 -2.48842 123.974 7.74253 134.17L115.913 242.34C126.146 252.534 142.733 252.449 152.93 242.218L185.082 210.066C175.705 219.443 167.989 212.701 158.845 203.595L140.911 185.662C127.297 191.051 111.385 188.374 100.355 177.365L86.6891 163.699C86.2293 163.243 85.8745 162.767 85.6252 162.17C85.3759 161.572 85.2473 160.931 85.2467 160.284C85.2462 159.637 85.3737 158.995 85.622 158.398C85.8702 157.8 86.2593 157.293 86.7183 156.837L94.4518 149.103L77.6167 132.268C74.9814 129.638 74.5511 125.391 76.9077 122.522C79.6015 119.228 84.4857 119.053 87.4411 122.002L104.504 139.051L116.061 127.494L99.1857 110.661C96.5492 108.03 96.1201 103.784 98.4968 100.895C99.1272 100.128 99.9112 99.5006 100.798 99.0542C101.686 98.6077 102.656 98.3518 103.648 98.3028C104.64 98.2538 105.631 98.4129 106.558 98.7697C107.485 99.1266 108.327 99.6733 109.03 100.375L126.162 117.393L133.422 110.132C133.878 109.673 134.327 109.259 134.925 109.01C135.522 108.761 136.163 108.632 136.811 108.632C137.458 108.631 138.099 108.758 138.697 109.006C139.295 109.254 139.838 109.618 140.295 110.077L153.983 123.738C164.875 134.609 167.723 150.431 162.631 163.943L180.568 181.88C189.712 190.985 197.363 197.785 206.741 188.408L247.312 147.836C237.56 157.588 229.548 150.075 219.911 140.446L110.605 31.0639Z" fill="url(#paint0_linear_4_515)"/>
<path d="M187.308 13.0273L152.82 47.4873L229.448 124.116C236.783 131.419 243.158 137.239 250.232 134.417C254.321 132.787 257.128 128.351 255.561 124.238C218.894 28.0253 218.879 28.0238 214.015 17.507C209.151 6.99014 195.471 4.76016 187.308 13.0273Z" fill="#897FFF"/>
<path d="M187.308 13.0273L152.82 47.4873L229.448 124.116C236.783 131.419 243.158 137.239 250.232 134.417C254.321 132.787 257.128 128.351 255.561 124.238C218.894 28.0253 218.879 28.0238 214.015 17.507C209.151 6.99014 195.471 4.76016 187.308 13.0273Z" fill="#897FFF"/>
<path d="M187.308 13.0273L152.82 47.4873L229.448 124.116C236.783 131.419 243.158 137.239 250.232 134.417C254.321 132.787 257.128 128.351 255.561 124.238C218.894 28.0253 218.879 28.0238 214.015 17.507C209.151 6.99014 195.471 4.76016 187.308 13.0273Z" fill="#897FFF"/>
<path d="M187.308 13.0273L152.82 47.4873L229.448 124.116C236.783 131.419 243.158 137.239 250.232 134.417C254.321 132.787 257.128 128.351 255.561 124.238C218.894 28.0253 218.879 28.0238 214.015 17.507C209.151 6.99014 195.471 4.76016 187.308 13.0273Z" fill="#897FFF"/>
<path d="M187.308 13.0273L152.82 47.4873L229.448 124.116C236.783 131.419 243.158 137.239 250.232 134.417C254.321 132.787 257.128 128.351 255.561 124.238C218.894 28.0253 218.879 28.0238 214.015 17.507C209.151 6.99014 195.471 4.76016 187.308 13.0273Z" fill="#897FFF"/>
<defs>
<linearGradient id="paint0_linear_4_515" x1="123.656" y1="10.4384" x2="123.656" y2="249.939" gradientUnits="userSpaceOnUse">
<stop stop-color="#FFCA4A"/>
<stop offset="1" stop-color="#F7931A"/>
</linearGradient>
</defs>
</svg>
