<svg width="880" height="256" viewBox="0 0 880 256" fill="none" xmlns="http://www.w3.org/2000/svg">
<path d="M110.605 31.0659C100.371 20.871 83.7516 20.9801 73.5543 31.2111L7.5804 97.4161C-2.61818 107.648 -2.48842 123.976 7.74253 134.172L115.913 242.342C126.146 252.536 142.733 252.451 152.93 242.22L185.082 210.068C175.705 219.445 167.989 212.703 158.845 203.597L140.911 185.664C127.297 191.053 111.385 188.376 100.355 177.367L86.6891 163.701C86.2293 163.245 85.8745 162.769 85.6252 162.172C85.3759 161.574 85.2473 160.933 85.2467 160.286C85.2462 159.638 85.3737 158.997 85.622 158.4C85.8702 157.802 86.2593 157.295 86.7183 156.839L94.4518 149.105L77.6167 132.27C74.9814 129.64 74.5511 125.393 76.9077 122.524C79.6015 119.23 84.4857 119.055 87.4411 122.004L104.504 139.053L116.061 127.496L99.1857 110.663C96.5492 108.032 96.1201 103.786 98.4968 100.897C99.1272 100.13 99.9112 99.5026 100.798 99.0561C101.686 98.6097 102.656 98.3537 103.648 98.3048C104.64 98.2558 105.631 98.4148 106.558 98.7717C107.485 99.1285 108.327 99.6753 109.03 100.377L126.162 117.395L133.422 110.134C133.878 109.675 134.327 109.261 134.925 109.012C135.522 108.763 136.163 108.634 136.811 108.634C137.458 108.633 138.099 108.76 138.697 109.008C139.295 109.256 139.838 109.62 140.295 110.079L153.983 123.74C164.875 134.611 167.723 150.433 162.631 163.945L180.568 181.882C189.712 190.987 197.363 197.787 206.741 188.41L247.312 147.838C237.56 157.59 229.548 150.077 219.911 140.448L110.605 31.0659Z" fill="url(#paint0_linear_8_156)"/>
<path d="M187.308 13.0273L152.82 47.4873L229.448 124.116C236.783 131.419 243.158 137.239 250.232 134.417C254.321 132.787 257.128 128.351 255.561 124.238C218.894 28.0253 218.879 28.0238 214.015 17.507C209.151 6.99014 195.471 4.76016 187.308 13.0273Z" fill="#897FFF"/>
<path d="M187.308 13.0273L152.82 47.4873L229.448 124.116C236.783 131.419 243.158 137.239 250.232 134.417C254.321 132.787 257.128 128.351 255.561 124.238C218.894 28.0253 218.879 28.0238 214.015 17.507C209.151 6.99014 195.471 4.76016 187.308 13.0273Z" fill="#897FFF"/>
<path d="M187.308 13.0273L152.82 47.4873L229.448 124.116C236.783 131.419 243.158 137.239 250.232 134.417C254.321 132.787 257.128 128.351 255.561 124.238C218.894 28.0253 218.879 28.0238 214.015 17.507C209.151 6.99014 195.471 4.76016 187.308 13.0273Z" fill="#897FFF"/>
<path d="M187.308 13.0273L152.82 47.4873L229.448 124.116C236.783 131.419 243.158 137.239 250.232 134.417C254.321 132.787 257.128 128.351 255.561 124.238C218.894 28.0253 218.879 28.0238 214.015 17.507C209.151 6.99014 195.471 4.76016 187.308 13.0273Z" fill="#897FFF"/>
<path d="M187.308 13.0273L152.82 47.4873L229.448 124.116C236.783 131.419 243.158 137.239 250.232 134.417C254.321 132.787 257.128 128.351 255.561 124.238C218.894 28.0253 218.879 28.0238 214.015 17.507C209.151 6.99014 195.471 4.76016 187.308 13.0273Z" fill="#897FFF"/>
<path d="M343.5 216C339.358 216 336 212.642 336 208.5V63.5C336 59.3579 339.358 56 343.5 56H367.311C371.308 56 374.603 59.1347 374.802 63.1268L376.653 100.278C376.76 102.421 374.2 103.6 372.64 102.127C372.018 101.539 371.757 100.662 371.973 99.8335C374.486 90.1858 378.332 82.1629 383.512 75.7647C388.93 69.0719 395.494 64.1569 403.204 61.0196C411.123 57.6732 419.771 56 429.148 56C439.984 56 449.57 58.0915 457.905 62.2745C466.449 66.4575 473.117 72.8366 477.91 81.4118C482.911 89.7778 485.412 100.34 485.412 113.098V208.5C485.412 212.642 482.054 216 477.912 216H450.089C445.947 216 442.589 212.642 442.589 208.5V125.333C442.589 111.948 439.984 102.745 434.774 97.7255C429.565 92.4967 422.792 89.8824 414.457 89.8824C408.622 89.8824 402.892 91.3464 397.265 94.2745C391.847 96.9935 387.367 101.49 383.824 107.765C380.49 114.039 378.823 122.405 378.823 132.863V208.5C378.823 212.642 375.465 216 371.323 216H343.5Z" fill="white"/>
<path d="M688.745 61.6324C689.597 58.3174 692.585 56 696.008 56H725.633C730.711 56 734.321 60.9396 732.779 65.7773L710.806 134.725L687.35 210.664C686.379 213.807 683.474 215.951 680.184 215.951H641.846C638.565 215.951 635.664 213.818 634.687 210.685L604.69 114.574C603.956 112.221 600.619 112.238 599.91 114.599L571.044 210.61C570.091 213.781 567.172 215.951 563.862 215.951H525.561C522.283 215.951 519.384 213.822 518.404 210.693L472.986 65.7425C471.472 60.9119 475.08 56 480.143 56H509.832C513.249 56 516.234 58.3101 517.092 61.6182L544.638 167.891C545.276 170.354 548.757 170.4 549.46 167.954L580.089 61.4275C581.013 58.2138 583.953 56 587.297 56H618.542C621.881 56 624.817 58.2068 625.746 61.4136L656.603 167.959C657.311 170.403 660.792 170.35 661.426 167.886L688.745 61.6324Z" fill="white"/>
<path d="M792.683 56C806.376 56 817.924 58.0513 827.325 62.1539C836.931 66.0513 844.595 71.4872 850.318 78.4615C854.644 83.4032 858.045 88.7822 860.521 94.5985C862.071 98.2426 859.984 102.278 856.259 103.621L831.67 112.491C827.415 114.025 822.849 111.436 821.242 107.208C819.23 101.917 816.557 97.6681 813.223 94.4615C808.318 89.7436 801.676 87.3846 793.296 87.3846C785.53 87.3846 778.888 89.2308 773.369 92.9231C767.851 96.4103 763.661 101.846 760.8 109.231C757.939 116.41 756.508 125.436 756.508 136.308C756.508 147.179 757.939 156.205 760.8 163.385C763.866 170.564 768.158 175.897 773.676 179.385C779.399 182.872 786.041 184.615 793.603 184.615C799.734 184.615 804.946 183.59 809.238 181.538C813.53 179.282 817.004 176.103 819.661 172C821.04 170.023 822.205 167.856 823.156 165.499C824.859 161.28 829.344 158.48 833.673 159.881L856.875 167.394C860.611 168.603 862.834 172.513 861.47 176.195C859.055 182.717 855.542 188.601 850.931 193.846C844.799 200.821 836.931 206.256 827.325 210.154C817.719 214.051 806.581 216 793.909 216C778.172 216 764.275 212.821 752.216 206.462C740.158 200.103 730.859 190.974 724.319 179.077C717.779 167.179 714.509 152.821 714.509 136C714.509 119.179 717.779 104.821 724.319 92.9231C730.859 81.0257 740.056 71.8974 751.91 65.5385C763.764 59.1795 777.355 56 792.683 56Z" fill="white"/>
<defs>
<linearGradient id="paint0_linear_8_156" x1="123.656" y1="10.4403" x2="123.656" y2="249.941" gradientUnits="userSpaceOnUse">
<stop stop-color="#FFCA4A"/>
<stop offset="1" stop-color="#F7931A"/>
</linearGradient>
</defs>
</svg>
